# xmcd
#
# Track frame offsets:
#	150
#	12778
#	24477
#	38223
#	51155
#	63473
#	73744
#	85390
#	95659
#	105859
#	117106
#	128929
#	140123
#	152787
#	163546
#	173542
#	183596
#	194184
#	204137
#	217393
#	228361
#	241438
#
# Disc length: 3370 seconds
#
# Revision: 1
# Processed by: cddbd v1.5.2PL0 Copyright (c) Steve Scherf et al.
# Submitted via: audiograbber 1.83.01
#
DISCID=3d0d2816
DTITLE=James Brown - I'll go crazy Disc 1
DYEAR=1900
DGENRE=
TTITLE0=Please, please, please
TTITLE1=I feel that old feeling coming on
TTITLE2=Why do you do me
TTITLE3=I don't know
TTITLE4=I walked alone
TTITLE5=No, no, no, no
TTITLE6=You're mine, you're mine
TTITLE7=Hold my baby's hand
TTITLE8=Chonnie-on-Chon
TTITLE9=I won't plead no more
TTITLE10=Just won't do right
TTITLE11=Let's make it
TTITLE12=Gonna try
TTITLE13=Can't be the same
TTITLE14=Messing with the Blues
TTITLE15=Fine old foxy self
TTITLE16=Love or a game
TTITLE17=Strange things happen (aka Why does everything happen to me)
TTITLE18=Begging, begging
TTITLE19=Baby cries over the ocean
TTITLE20=That's when I lost my heart
TTITLE21=That dood it
EXTD=
EXTT0=
EXTT1=
EXTT2=
EXTT3=
EXTT4=
EXTT5=
EXTT6=
EXTT7=
EXTT8=
EXTT9=
EXTT10=
EXTT11=
EXTT12=
EXTT13=
EXTT14=
EXTT15=
EXTT16=
EXTT17=
EXTT18=
EXTT19=
EXTT20=
EXTT21=
PLAYORDER=
